<svg width="500" height="500" viewBox="0 0 500 500" fill="none" xmlns="http://www.w3.org/2000/svg">
<circle cx="250" cy="250" r="250" fill="black"/>
<path d="M111.5 175.5H166L180.679 204M111.5 175.5L180.679 204M111.5 175.5L151.754 250M234.5 308.5L212 361.5M234.5 308.5L233.084 305.75M234.5 308.5L259 361.5H212M212 361.5L181.877 305.75M180.679 204L151.754 250M180.679 204L207.589 256.25M151.754 250L207.589 256.25M151.754 250L181.877 305.75M207.589 256.25L181.877 305.75M207.589 256.25L233.084 305.75M181.877 305.75H233.084" stroke="#E94AE2" stroke-width="5"/>
<path d="M360 175H306.829L292.509 203.5M360 175L292.509 203.5M360 175L320.728 249.5M239.5 308L263 358.5L291.34 305.25M239.5 308L266.254 255.75M239.5 308L291.34 305.25M292.509 203.5L320.728 249.5M292.509 203.5L266.254 255.75M320.728 249.5L266.254 255.75M320.728 249.5L291.34 305.25M266.254 255.75L291.34 305.25" stroke="#B711D1" stroke-width="5"/>
<path d="M211.5 90L165 61L203 101.5M211.5 90L243 61L224.5 98M211.5 90L214.5 110M224.5 98L250 127.5L214.5 110M224.5 98L203 101.5M214.5 110L187.5 137L203 101.5" stroke="#C5C03F" stroke-width="5"/>
<path d="M130.924 377.897L109.316 327.534L117.378 382.482M130.924 377.897L173.343 372.082L137.026 391.888M130.924 377.897L121.964 396.027M137.026 391.888L141.11 430.667L121.964 396.027M137.026 391.888L117.378 382.482M121.964 396.027L84.3801 402.77L117.378 382.482" stroke="#D5811F" stroke-width="5"/>
<path d="M414.326 269.283L418.383 212L399.509 267.05M414.326 269.283L456.628 284.235L413.292 285.244M414.326 269.283L397.276 281.867M413.292 285.244L398.475 323.324L397.276 281.867M413.292 285.244L399.509 267.05M397.276 281.867L359.032 270.102L399.509 267.05" stroke="#231FD5" stroke-width="5"/>
</svg>
